<svg viewBox="-4 -4 134 74" xmlns="http://www.w3.org/2000/svg">
<path d="M0,33 A1,1,0,0,0,0,33 A1,1,0,0,0,2,33 A1,1,0,0,1,6,33 A1,1,0,0,0,12,33 A1,1,0,0,0,4,33 A1,1,0,0,0,14,33 A1,1,0,0,1,26,33 A1,1,0,0,0,40,33 A1,1,0,0,0,24,33 A1,1,0,0,0,42,33 A1,1,0,0,0,22,33 A1,1,0,0,0,44,33 A1,1,0,0,0,20,33 A1,1,0,0,0,46,33 A1,1,0,0,0,18,33 A1,1,0,0,0,48,33 A1,1,0,0,0,16,33 A1,1,0,0,0,50,33 A1,1,0,0,1,86,33 A1,1,0,0,0,124,33 A1,1,0,0,0,84,33 A1,1,0,0,0,126,33 A1,1,0,0,0,82,33 A1,1,0,0,1,36,33 A1,1,0,0,1,84,33 A1,1,0,0,1,34,33 A1,1,0,0,1,86,33 A1,1,0,0,1,32,33 A1,1,0,0,1,88,33 A1,1,0,0,1,30,33 A1,1,0,0,1,90,33 A1,1,0,0,1,28,33 A1,1,0,0,1,92,33" fill="none" stroke="black" stroke-width="1"/>
</svg>